<svg width="54" height="42" viewBox="0 0 54 42" version="1.1" xmlns="http://www.w3.org/2000/svg" xmlns:xlink="http://www.w3.org/1999/xlink">
<title>Vector</title>
<desc>Created using Figma</desc>
<g id="Canvas" transform="translate(27 -326)">
<g id="Vector">
<use xlink:href="#path0_fill" transform="translate(-27 326)" fill="#FFFFFF"/>
</g>
</g>
<defs>
<path id="path0_fill" fill-rule="evenodd" d="M 3.05485 41C 5.29441 41.2135 48.087 41 50.0678 41C 52.0485 41 53.0485 40 53.0485 37.8798C 53.0486 35.7595 53.0486 3.77848 53.0485 2.63924C 53.0485 1.5 51.5485 -1.08545e-05 50.0422 1.10371e-06C 48.5359 1.30619e-05 4.56119 -4.39462e-06 3.05485 1.10371e-06C 1.54851 6.60204e-06 0.0485096 1.5 0.0485195 2.63924C 0.0485295 3.77849 -0.0606544 35.6568 0.0485195 37.8798C 0.157693 40.1028 0.815293 40.7865 3.05485 41ZM 3.78903 37.1456L 3.78903 8.5L 22.8776 27C 25.2379 28.7353 26.527 28.8159 28.751 27L 49.308 8.5L 49.308 37.1456L 3.78903 37.1456ZM 49.308 3.37342L 3.78903 3.37342L 26.0485 25L 49.308 3.37342Z"/>
</defs>
</svg>
