<svg width="50" height="50" viewBox="0 0 50 50" version="1.1" xmlns="http://www.w3.org/2000/svg" xmlns:xlink="http://www.w3.org/1999/xlink">
<title>phone-receiver</title>
<desc>Created using Figma</desc>
<g id="Canvas" transform="translate(25 -100)">
<g id="phone-receiver">
<g id="Group">
<g id="Group">
<g id="Vector">
<use xlink:href="#path0_fill" transform="translate(-25 100)" fill="#FFFFFF"/>
</g>
</g>
</g>
</g>
</g>
<defs>
<path id="path0_fill" d="M 49.9762 39.434C 50.0821 40.2457 49.8348 40.9514 49.2351 41.5512L 42.1952 48.5379C 41.8776 48.8908 41.4631 49.191 40.9514 49.4378C 40.4398 49.6849 39.937 49.8437 39.4431 49.9142C 39.4079 49.9142 39.3017 49.9232 39.1252 49.9409C 38.949 49.9584 38.7197 49.9674 38.4374 49.9674C 37.7667 49.9674 36.6815 49.8527 35.1818 49.6233C 33.6821 49.3938 31.8472 48.8291 29.6772 47.9295C 27.5067 47.0296 25.0454 45.6797 22.2931 43.8802C 19.5407 42.0808 16.6118 39.6105 13.5064 36.4698C 11.0363 34.035 8.98962 31.706 7.36639 29.4829C 5.74316 27.2597 4.43751 25.2042 3.44946 23.3163C 2.46132 21.4284 1.72027 19.717 1.22625 18.182C 0.732219 16.647 0.396986 15.3237 0.220548 14.2121C 0.0441096 13.1005 -0.0264658 12.2272 0.00882192 11.592C 0.0441096 10.9568 0.0617534 10.6039 0.0617534 10.5334C 0.132329 10.0393 0.291123 9.53649 0.538137 9.02482C 0.785151 8.51315 1.0851 8.09852 1.43797 7.78093L 8.47786 0.741041C 8.97189 0.247014 9.53649 -5.56758e-10 10.1717 -5.56758e-10C 10.6304 -5.56758e-10 11.0362 0.132329 11.3891 0.396986C 11.742 0.661644 12.0419 0.988055 12.2889 1.37622L 17.9526 12.1213C 18.2702 12.6859 18.3584 13.3035 18.2173 13.9739C 18.0761 14.6444 17.7762 15.209 17.3174 15.6677L 14.7238 18.2614C 14.6532 18.3319 14.5915 18.4466 14.5385 18.6054C 14.4856 18.7642 14.4591 18.8965 14.4591 19.0024C 14.6003 19.7435 14.9179 20.5904 15.4119 21.5431C 15.8353 22.39 16.4882 23.4222 17.3704 24.6396C 18.2526 25.857 19.5053 27.2596 21.1285 28.8476C 22.7164 30.471 24.1279 31.7324 25.363 32.6324C 26.5978 33.5319 27.6303 34.1938 28.4596 34.6172C 29.2889 35.0407 29.924 35.2965 30.365 35.3845L 31.0265 35.5169C 31.0971 35.5169 31.212 35.4903 31.3707 35.4375C 31.5295 35.3845 31.6441 35.3228 31.7148 35.2521L 34.7318 32.1821C 35.3673 31.6176 36.108 31.3353 36.955 31.3353C 37.5551 31.3353 38.0312 31.4411 38.3841 31.6529L 38.4369 31.6529L 48.6526 37.6871C 49.3939 38.1461 49.8349 38.7282 49.9762 39.434Z"/>
</defs>
</svg>
