<svg width="50" height="50" viewBox="0 0 50 50" version="1.1" xmlns="http://www.w3.org/2000/svg" xmlns:xlink="http://www.w3.org/1999/xlink">
<title>phone-receiver</title>
<desc>Created using Figma</desc>
<g id="Canvas" transform="translate(125 -191)">
<g id="phone-receiver">
<g id="Group">
<g id="Group">
<g id="Vector">
<use xlink:href="#path0_fill" transform="translate(-125 191)" fill="#FFFFFF"/>
</g>
</g>
</g>
</g>
</g>
<defs>
<path id="path0_fill" d="M 49.9762 39.4597C 50.0821 40.2719 49.8348 40.9781 49.2351 41.5783L 42.1952 48.5696C 41.8776 48.9227 41.4631 49.2231 40.9514 49.47C 40.4398 49.7173 39.937 49.8762 39.4431 49.9467C 39.4079 49.9467 39.3017 49.9558 39.1252 49.9734C 38.949 49.991 38.7197 50 38.4374 50C 37.7667 50 36.6815 49.8852 35.1818 49.6556C 33.6821 49.426 31.8472 48.861 29.6772 47.9607C 27.5067 47.0603 25.0454 45.7095 22.2931 43.9088C 19.5407 42.1082 16.6118 39.6363 13.5064 36.4936C 11.0363 34.0571 8.98962 31.7266 7.36639 29.5022C 5.74316 27.2775 4.43751 25.2206 3.44946 23.3315C 2.46132 21.4424 1.72027 19.7298 1.22625 18.1938C 0.732219 16.6578 0.396986 15.3337 0.220548 14.2214C 0.0441096 13.1091 -0.0264658 12.2351 0.00882192 11.5996C 0.0441096 10.964 0.0617534 10.6109 0.0617534 10.5402C 0.132329 10.0459 0.291123 9.54271 0.538137 9.0307C 0.785151 8.5187 1.0851 8.1038 1.43797 7.786L 8.47786 0.741524C 8.97189 0.247175 9.53649 -5.57121e-10 10.1717 -5.57121e-10C 10.6304 -5.57121e-10 11.0362 0.132415 11.3891 0.397245C 11.742 0.662075 12.0419 0.988699 12.2889 1.37712L 17.9526 12.1292C 18.2702 12.6942 18.3584 13.3121 18.2173 13.983C 18.0761 14.6539 17.7762 15.2189 17.3174 15.6779L 14.7238 18.2733C 14.6532 18.3439 14.5915 18.4587 14.5385 18.6176C 14.4856 18.7765 14.4591 18.9089 14.4591 19.0148C 14.6003 19.7563 14.9179 20.6038 15.4119 21.5572C 15.8353 22.4046 16.4882 23.4375 17.3704 24.6557C 18.2525 25.8739 19.5053 27.2774 21.1285 28.8664C 22.7164 30.4909 24.1279 31.753 25.363 32.6536C 26.5978 33.5537 27.6303 34.216 28.4596 34.6398C 29.2889 35.0635 29.924 35.3195 30.365 35.4075L 31.0265 35.54C 31.0971 35.54 31.212 35.5135 31.3707 35.4606C 31.5295 35.4075 31.6441 35.3458 31.7148 35.2751L 34.7318 32.2031C 35.3673 31.6382 36.108 31.3557 36.955 31.3557C 37.5551 31.3557 38.0312 31.4616 38.3841 31.6735L 38.4369 31.6735L 48.6526 37.7116C 49.3939 38.171 49.8349 38.7535 49.9762 39.4597Z"/>
</defs>
</svg>
