<svg width="52" height="47" viewBox="0 0 52 47" version="1.1" xmlns="http://www.w3.org/2000/svg" xmlns:xlink="http://www.w3.org/1999/xlink">
<title>icons8-telegram-app</title>
<desc>Created using Figma</desc>
<g id="Canvas" transform="translate(-71 -193)">
<g id="icons8-telegram-app">
<g id="Vector">
<use xlink:href="#path0_stroke" transform="translate(72 194)" fill="#FFFFFF"/>
</g>
<g id="Vector">
<use xlink:href="#path1_fill" transform="translate(84.8365 203.4)" fill="#FFFFFF"/>
</g>
</g>
</g>
<defs>
<path id="path0_stroke" d="M 46.8932 0.283096L 46.527 -0.647438L 46.5258 -0.646946L 46.8932 0.283096ZM 1.94545 19.1933L 2.26899 20.1396L 2.3019 20.1283L 2.33395 20.1148L 1.94545 19.1933ZM 1.89127 23.1759L 1.55689 24.1183L 1.56454 24.121L 1.57223 24.1236L 1.89127 23.1759ZM 13.0657 26.9375L 14.0222 26.6458L 13.8722 26.1538L 13.3847 25.9898L 13.0657 26.9375ZM 17.1045 40.1022L 18.058 39.8007L 18.0579 39.8004L 17.1045 40.1022ZM 18.3007 42.2549L 18.7002 41.3382L 18.5536 41.2743L 18.3944 41.2593L 18.3007 42.2549ZM 19.4823 42.0945L 20.0875 42.8906L 20.1231 42.8635L 20.1561 42.8334L 19.4823 42.0945ZM 26.7034 35.5111L 27.3119 34.7175L 26.6479 34.2085L 26.0297 34.7721L 26.7034 35.5111ZM 37.9591 44.1409L 37.3507 44.9345L 37.4474 45.0087L 37.5592 45.0575L 37.9591 44.1409ZM 42.1084 42.703L 43.0368 43.0745L 43.0718 42.987L 43.0898 42.8946L 42.1084 42.703ZM 49.8629 2.97354L 48.887 2.75535L 48.8841 2.76863L 48.8815 2.78197L 49.8629 2.97354ZM 46.5258 -0.646946C 45.7471 -0.339304 34.4914 4.39627 23.4576 9.04325C 17.9346 11.3693 12.4595 13.6765 8.36506 15.4021C 6.31786 16.2649 4.61584 16.9824 3.42562 17.4841C 2.83051 17.735 2.36334 17.9319 2.04496 18.0662C 1.88577 18.1333 1.76377 18.1847 1.68156 18.2194C 1.64046 18.2367 1.60931 18.2498 1.58844 18.2586C 1.578 18.263 1.57013 18.2663 1.56487 18.2686C 1.56224 18.2697 1.56026 18.2705 1.55894 18.2711C 1.55828 18.2713 1.55778 18.2715 1.55745 18.2717C 1.55712 18.2718 1.55695 18.2719 1.94545 19.1933C 2.33395 20.1148 2.33412 20.1147 2.33445 20.1146C 2.33478 20.1144 2.33528 20.1142 2.33594 20.114C 2.33725 20.1134 2.33923 20.1126 2.34186 20.1115C 2.34712 20.1092 2.35499 20.1059 2.36542 20.1015C 2.3863 20.0927 2.41744 20.0796 2.45854 20.0623C 2.54073 20.0276 2.66272 19.9762 2.82191 19.9091C 3.14028 19.7749 3.60742 19.5779 4.20251 19.3271C 5.39269 18.8253 7.09467 18.1079 9.14182 17.2451C 13.2361 15.5195 18.7111 13.2124 24.2339 10.8865C 35.2915 6.22941 46.5097 1.50986 47.2607 1.21314L 46.5258 -0.646946ZM 1.94545 19.1933C 1.62192 18.2471 1.62164 18.2472 1.62135 18.2473C 1.62124 18.2474 1.62095 18.2475 1.62073 18.2475C 1.6203 18.2477 1.61984 18.2478 1.61934 18.248C 1.61835 18.2484 1.61723 18.2487 1.61598 18.2492C 1.61347 18.25 1.61045 18.2511 1.60693 18.2523C 1.59989 18.2548 1.59083 18.2581 1.57989 18.262C 1.55804 18.27 1.52861 18.281 1.49271 18.2949C 1.4211 18.3228 1.32272 18.363 1.20677 18.4156C 0.978226 18.5191 0.665201 18.6778 0.34994 18.8937C -0.204198 19.2731 -1.14209 20.0961 -0.982791 21.3644L 1.00162 21.1152C 0.994195 21.0561 1.02433 20.8558 1.47989 20.5439C 1.66948 20.4141 1.87172 20.31 2.03224 20.2373C 2.11081 20.2017 2.17541 20.1754 2.21814 20.1587C 2.23942 20.1504 2.255 20.1447 2.26387 20.1414C 2.26829 20.1398 2.27102 20.1389 2.27192 20.1386C 2.27238 20.1384 2.27237 20.1384 2.27188 20.1386C 2.27164 20.1386 2.27128 20.1388 2.2708 20.1389C 2.27056 20.139 2.27029 20.1391 2.26998 20.1392C 2.26983 20.1393 2.26958 20.1394 2.26951 20.1394C 2.26925 20.1395 2.26899 20.1396 1.94545 19.1933ZM -0.982791 21.3644C -0.847376 22.4427 -0.100651 23.1429 0.435343 23.522C 0.718692 23.7225 0.990868 23.8678 1.19082 23.9629C 1.29186 24.0111 1.37725 24.0477 1.44007 24.0733C 1.47155 24.0861 1.49756 24.0962 1.51726 24.1037C 1.52712 24.1074 1.53542 24.1105 1.54205 24.113C 1.54537 24.1142 1.54828 24.1152 1.55075 24.1161C 1.55199 24.1166 1.55312 24.117 1.55415 24.1173C 1.55466 24.1175 1.55514 24.1177 1.5556 24.1179C 1.55583 24.1179 1.55615 24.1181 1.55627 24.1181C 1.55658 24.1182 1.55689 24.1183 1.89127 23.1759C 2.22565 22.2334 2.22594 22.2335 2.22623 22.2336C 2.22632 22.2337 2.22661 22.2338 2.22678 22.2338C 2.22714 22.234 2.22746 22.2341 2.22777 22.2342C 2.22838 22.2344 2.22889 22.2346 2.2293 22.2347C 2.23013 22.235 2.23057 22.2352 2.23063 22.2352C 2.23077 22.2353 2.22942 22.2348 2.22667 22.2337C 2.22117 22.2317 2.21017 22.2274 2.19443 22.221C 2.16279 22.2081 2.11289 22.1868 2.05053 22.1572C 1.92368 22.0968 1.75666 22.0069 1.59038 21.8893C 1.22713 21.6323 1.03293 21.3645 1.00162 21.1152L -0.982791 21.3644ZM 1.57223 24.1236L 12.7467 27.8852L 13.3847 25.9898L 2.21031 22.2281L 1.57223 24.1236ZM 13.0657 26.9375C 12.1092 27.2292 12.1092 27.2292 12.1092 27.2293C 12.1093 27.2294 12.1093 27.2295 12.1093 27.2297C 12.1094 27.23 12.1096 27.2305 12.1098 27.2312C 12.1102 27.2326 12.1108 27.2346 12.1116 27.2372C 12.1133 27.2426 12.1157 27.2505 12.1189 27.261C 12.1253 27.282 12.1348 27.3132 12.1473 27.354C 12.1721 27.4356 12.2087 27.5555 12.2555 27.7088C 12.3491 28.0155 12.4835 28.456 12.6469 28.9911C 12.9736 30.0613 13.4162 31.5101 13.8796 33.0246C 14.8053 36.0505 15.8169 39.3477 16.1511 40.4039L 18.0579 39.8004C 17.7273 38.7559 16.7195 35.4708 15.792 32.4395C 15.3288 30.9255 14.8864 29.477 14.5597 28.4071C 14.3964 27.8721 14.262 27.4318 14.1684 27.1252C 14.1217 26.9719 14.0851 26.852 14.0602 26.7705C 14.0478 26.7297 14.0383 26.6986 14.0319 26.6776C 14.0287 26.6671 14.0263 26.6591 14.0247 26.6538C 14.0238 26.6512 14.0232 26.6492 14.0228 26.6478C 14.0226 26.6471 14.0225 26.6466 14.0224 26.6463C 14.0223 26.6461 14.0223 26.646 14.0222 26.6459C 14.0222 26.6458 14.0222 26.6458 13.0657 26.9375ZM 16.151 40.4036C 16.5012 41.5112 16.845 42.1761 17.165 42.5842C 17.3287 42.7929 17.4993 42.9512 17.6782 43.0628C 17.7681 43.1189 17.859 43.1624 17.9497 43.1937C 17.9949 43.2094 18.0393 43.2217 18.0826 43.2311C 18.1042 43.2358 18.1254 43.2397 18.1462 43.2429C 18.1566 43.2446 18.1668 43.246 18.177 43.2472C 18.1821 43.2479 18.1871 43.2485 18.1921 43.249C 18.1946 43.2493 18.1971 43.2495 18.1996 43.2498C 18.2008 43.2499 18.2027 43.2501 18.2033 43.2502C 18.2052 43.2503 18.207 43.2505 18.3007 42.2549C 18.3944 41.2593 18.3963 41.2595 18.3981 41.2597C 18.3987 41.2597 18.4006 41.2599 18.4018 41.26C 18.4042 41.2603 18.4067 41.2606 18.4091 41.2608C 18.414 41.2614 18.4188 41.2619 18.4237 41.2625C 18.4333 41.2637 18.4428 41.265 18.4522 41.2665C 18.4709 41.2694 18.4891 41.2728 18.5066 41.2766C 18.5418 41.2842 18.5741 41.2934 18.6034 41.3036C 18.6625 41.324 18.7067 41.3472 18.7364 41.3657C 18.7949 41.4022 18.7911 41.4166 18.7388 41.3499C 18.6269 41.2073 18.3726 40.7959 18.058 39.8007L 16.151 40.4036ZM 17.9012 43.1716C 18.5099 43.4369 19.0769 43.3465 19.4428 43.2229C 19.6275 43.1606 19.7777 43.0849 19.8836 43.0239C 19.9372 42.993 19.9816 42.9646 20.0155 42.9418C 20.0326 42.9303 20.0472 42.9201 20.0592 42.9115C 20.0652 42.9072 20.0705 42.9032 20.0753 42.8997C 20.0776 42.898 20.0798 42.8963 20.0819 42.8948C 20.0829 42.8941 20.0839 42.8933 20.0848 42.8926C 20.0853 42.8923 20.0857 42.8919 20.0862 42.8916C 20.0864 42.8914 20.0867 42.8911 20.0869 42.8911C 20.0872 42.8908 20.0875 42.8906 19.4823 42.0945C 18.8772 41.2984 18.8775 41.2981 18.8778 41.2979C 18.8779 41.2978 18.8782 41.2975 18.8785 41.2974C 18.8789 41.2971 18.8793 41.2968 18.8797 41.2965C 18.8805 41.2959 18.8813 41.2953 18.882 41.2947C 18.8835 41.2936 18.8849 41.2926 18.8862 41.2916C 18.8887 41.2897 18.8908 41.2882 18.8925 41.287C 18.896 41.2845 18.8978 41.2833 18.8982 41.283C 18.8989 41.2825 18.8943 41.2857 18.8854 41.2908C 18.8661 41.3019 18.8365 41.3167 18.8029 41.3281C 18.7322 41.3519 18.7084 41.3417 18.7002 41.3382L 17.9012 43.1716ZM 20.1561 42.8334L 27.3771 36.2501L 26.0297 34.7721L 18.8086 41.3555L 20.1561 42.8334ZM 26.095 36.3047L 37.3507 44.9345L 38.5676 43.3474L 27.3119 34.7175L 26.095 36.3047ZM 37.5592 45.0575C 38.4607 45.4508 39.2854 45.5683 40.0263 45.4671C 40.7664 45.3661 41.3548 45.0563 41.7993 44.7007C 42.2381 44.3498 42.5409 43.9519 42.7324 43.65C 42.8294 43.497 42.9014 43.3631 42.9508 43.2634C 42.9756 43.2133 42.995 43.1714 43.0092 43.1395C 43.0163 43.1235 43.0221 43.1099 43.0267 43.099C 43.029 43.0936 43.031 43.0888 43.0327 43.0847C 43.0335 43.0826 43.0343 43.0808 43.035 43.0791C 43.0353 43.0782 43.0356 43.0774 43.0359 43.0766C 43.0361 43.0763 43.0363 43.0757 43.0364 43.0755C 43.0366 43.075 43.0368 43.0745 42.1084 42.703C 41.1799 42.3315 41.1801 42.331 41.1803 42.3305C 41.1804 42.3303 41.1806 42.3299 41.1807 42.3296C 41.1809 42.329 41.1812 42.3284 41.1814 42.3279C 41.1818 42.3269 41.1822 42.326 41.1824 42.3253C 41.183 42.3238 41.1834 42.323 41.1835 42.3227C 41.1837 42.3222 41.183 42.324 41.1812 42.328C 41.1777 42.3359 41.1703 42.3521 41.1589 42.3751C 41.136 42.4214 41.0978 42.4931 41.0435 42.5787C 40.9324 42.7538 40.7684 42.9643 40.5502 43.1388C 40.3377 43.3087 40.079 43.4414 39.7558 43.4855C 39.4335 43.5295 38.9788 43.4948 38.359 43.2244L 37.5592 45.0575ZM 43.0898 42.8946L 50.8444 3.16511L 48.8815 2.78197L 41.1269 42.5114L 43.0898 42.8946ZM 50.8389 3.19173C 51.2193 1.49005 50.9368 0.071598 49.7477 -0.626049C 48.7206 -1.22866 47.432 -1.00359 46.527 -0.647437L 47.2595 1.21363C 47.9696 0.934155 48.5097 0.966456 48.7356 1.09898C 48.7995 1.13647 49.1943 1.38104 48.887 2.75535L 50.8389 3.19173Z"/>
<path id="path1_fill" d="M 28.5508 0.500948C 28.6071 -0.438937 27.2963 0.232113 27.2963 0.232113L 8.26784e-07 17.1396C 8.26784e-07 17.1396 3.60324 28.6017 4.26804 30.7044C 4.93075 32.8072 5.83938 33.1656 5.83938 33.1656L 7.87753 20.1948C 7.87753 20.1948 27.1692 2.21608 27.9986 1.44083C 28.828 0.667669 28.5508 0.500948 28.5508 0.500948Z"/>
</defs>
</svg>
