<svg width="184" height="74" viewBox="0 0 184 74" version="1.1" xmlns="http://www.w3.org/2000/svg" xmlns:xlink="http://www.w3.org/1999/xlink">
<title>IGOR BOROZDIN</title>
<desc>Created using Figma</desc>
<g id="Canvas" transform="translate(92 65)">
<g id="IGOR BOROZDIN">
<use xlink:href="#path0_fill" transform="translate(-100 -73)" fill="#FFFFFF"/>
</g>
</g>
<defs>
<path id="path0_fill" d="M 58.8945 34L 58.8945 8.44L 63.8625 8.44L 63.8625 34L 58.8945 34ZM 86.9432 31.12C 84.9033 33.16 82.5273 34.18 79.8152 34.18C 78.1353 34.18 76.5513 33.844 75.0633 33.172C 73.5993 32.5 72.3152 31.576 71.2112 30.4C 70.1313 29.224 69.2672 27.844 68.6192 26.26C 67.9952 24.652 67.6833 22.924 67.6833 21.076C 67.6833 19.324 67.9952 17.68 68.6192 16.144C 69.2672 14.584 70.1432 13.228 71.2472 12.076C 72.3753 10.9 73.6953 9.976 75.2072 9.304C 76.7192 8.608 78.3632 8.26 80.1392 8.26C 82.5392 8.26 84.5912 8.764 86.2953 9.772C 88.0233 10.78 89.3193 12.136 90.1833 13.84L 86.4753 16.576C 85.8273 15.304 84.9153 14.332 83.7392 13.66C 82.5873 12.988 81.3273 12.652 79.9592 12.652C 78.8792 12.652 77.8833 12.88 76.9712 13.336C 76.0832 13.792 75.3153 14.416 74.6672 15.208C 74.0433 16 73.5512 16.912 73.1913 17.944C 72.8552 18.976 72.6873 20.068 72.6873 21.22C 72.6873 22.42 72.8793 23.548 73.2633 24.604C 73.6472 25.636 74.1753 26.536 74.8473 27.304C 75.5192 28.072 76.3113 28.684 77.2232 29.14C 78.1593 29.572 79.1673 29.788 80.2473 29.788C 82.7193 29.788 84.9512 28.624 86.9432 26.296L 86.9432 24.496L 81.7952 24.496L 81.7952 20.86L 91.0472 20.86L 91.0472 34L 86.9432 34L 86.9432 31.12ZM 106.189 34.18C 104.317 34.18 102.613 33.82 101.077 33.1C 99.5652 32.356 98.2572 31.384 97.1532 30.184C 96.0732 28.96 95.2332 27.568 94.6332 26.008C 94.0332 24.448 93.7332 22.852 93.7332 21.22C 93.7332 19.516 94.0452 17.884 94.6692 16.324C 95.3172 14.764 96.1932 13.384 97.2972 12.184C 98.4252 10.984 99.7572 10.036 101.293 9.34C 102.829 8.62 104.497 8.26 106.297 8.26C 108.145 8.26 109.825 8.644 111.337 9.412C 112.873 10.156 114.181 11.14 115.261 12.364C 116.341 13.588 117.181 14.98 117.781 16.54C 118.381 18.1 118.681 19.684 118.681 21.292C 118.681 22.996 118.369 24.628 117.745 26.188C 117.121 27.724 116.257 29.092 115.153 30.292C 114.049 31.468 112.729 32.416 111.193 33.136C 109.657 33.832 107.989 34.18 106.189 34.18ZM 98.7732 21.22C 98.7732 22.324 98.9412 23.392 99.2772 24.424C 99.6132 25.456 100.093 26.368 100.717 27.16C 101.365 27.952 102.145 28.588 103.057 29.068C 103.993 29.548 105.049 29.788 106.225 29.788C 107.425 29.788 108.481 29.548 109.393 29.068C 110.329 28.564 111.109 27.904 111.733 27.088C 112.381 26.272 112.861 25.36 113.173 24.352C 113.509 23.32 113.677 22.276 113.677 21.22C 113.677 20.116 113.497 19.048 113.137 18.016C 112.801 16.984 112.309 16.072 111.661 15.28C 111.037 14.488 110.257 13.864 109.321 13.408C 108.409 12.928 107.377 12.688 106.225 12.688C 105.025 12.688 103.957 12.94 103.021 13.444C 102.085 13.924 101.305 14.572 100.681 15.388C 100.057 16.18 99.5772 17.092 99.2412 18.124C 98.9292 19.132 98.7732 20.164 98.7732 21.22ZM 122.492 34L 122.492 8.44L 133.796 8.44C 134.972 8.44 136.052 8.692 137.036 9.196C 138.044 9.676 138.908 10.324 139.628 11.14C 140.348 11.932 140.912 12.844 141.32 13.876C 141.728 14.884 141.932 15.904 141.932 16.936C 141.932 18.592 141.512 20.104 140.672 21.472C 139.856 22.816 138.74 23.788 137.324 24.388L 143.156 34L 137.576 34L 132.356 25.432L 127.46 25.432L 127.46 34L 122.492 34ZM 127.46 21.076L 133.688 21.076C 134.144 21.076 134.564 20.968 134.948 20.752C 135.356 20.536 135.704 20.248 135.992 19.888C 136.28 19.504 136.508 19.06 136.676 18.556C 136.844 18.052 136.928 17.512 136.928 16.936C 136.928 16.336 136.832 15.784 136.64 15.28C 136.448 14.776 136.184 14.344 135.848 13.984C 135.536 13.6 135.164 13.312 134.732 13.12C 134.324 12.904 133.904 12.796 133.472 12.796L 127.46 12.796L 127.46 21.076ZM 29.1955 74.412C 29.1955 75.492 28.9795 76.44 28.5475 77.256C 28.1155 78.072 27.5155 78.756 26.7475 79.308C 26.0035 79.86 25.1275 80.28 24.1195 80.568C 23.1355 80.856 22.0795 81 20.9515 81L 8.60345 81L 8.60345 55.44L 22.2835 55.44C 23.1715 55.44 23.9755 55.632 24.6955 56.016C 25.4155 56.4 26.0275 56.904 26.5315 57.528C 27.0355 58.128 27.4195 58.824 27.6835 59.616C 27.9715 60.384 28.1155 61.164 28.1155 61.956C 28.1155 63.204 27.8035 64.38 27.1795 65.484C 26.5555 66.564 25.6435 67.368 24.4435 67.896C 25.9075 68.328 27.0595 69.108 27.8995 70.236C 28.7635 71.34 29.1955 72.732 29.1955 74.412ZM 24.1915 73.476C 24.1915 73.02 24.1075 72.588 23.9395 72.18C 23.7955 71.748 23.5915 71.376 23.3275 71.064C 23.0635 70.752 22.7515 70.512 22.3915 70.344C 22.0315 70.152 21.6355 70.056 21.2035 70.056L 13.5715 70.056L 13.5715 76.788L 20.9515 76.788C 21.4075 76.788 21.8275 76.704 22.2115 76.536C 22.6195 76.368 22.9675 76.14 23.2555 75.852C 23.5435 75.54 23.7715 75.18 23.9395 74.772C 24.1075 74.364 24.1915 73.932 24.1915 73.476ZM 13.5715 59.688L 13.5715 66.132L 20.1955 66.132C 21.0355 66.132 21.7435 65.844 22.3195 65.268C 22.9195 64.692 23.2195 63.9 23.2195 62.892C 23.2195 61.908 22.9435 61.128 22.3915 60.552C 21.8635 59.976 21.2035 59.688 20.4115 59.688L 13.5715 59.688ZM 43.9802 81.18C 42.1082 81.18 40.4042 80.82 38.8682 80.1C 37.3562 79.356 36.0482 78.384 34.9442 77.184C 33.8642 75.96 33.0242 74.568 32.4242 73.008C 31.8242 71.448 31.5242 69.852 31.5242 68.22C 31.5242 66.516 31.8362 64.884 32.4602 63.324C 33.1082 61.764 33.9842 60.384 35.0882 59.184C 36.2162 57.984 37.5482 57.036 39.0842 56.34C 40.6202 55.62 42.2882 55.26 44.0882 55.26C 45.9362 55.26 47.6162 55.644 49.1282 56.412C 50.6642 57.156 51.9722 58.14 53.0522 59.364C 54.1322 60.588 54.9722 61.98 55.5722 63.54C 56.1722 65.1 56.4722 66.684 56.4722 68.292C 56.4722 69.996 56.1602 71.628 55.5362 73.188C 54.9122 74.724 54.0482 76.092 52.9442 77.292C 51.8402 78.468 50.5202 79.416 48.9842 80.136C 47.4482 80.832 45.7802 81.18 43.9802 81.18ZM 36.5642 68.22C 36.5642 69.324 36.7322 70.392 37.0682 71.424C 37.4042 72.456 37.8842 73.368 38.5082 74.16C 39.1562 74.952 39.9362 75.588 40.8482 76.068C 41.7842 76.548 42.8402 76.788 44.0162 76.788C 45.2162 76.788 46.2722 76.548 47.1842 76.068C 48.1202 75.564 48.9002 74.904 49.5242 74.088C 50.1722 73.272 50.6522 72.36 50.9642 71.352C 51.3002 70.32 51.4682 69.276 51.4682 68.22C 51.4682 67.116 51.2882 66.048 50.9282 65.016C 50.5922 63.984 50.1002 63.072 49.4522 62.28C 48.8282 61.488 48.0482 60.864 47.1122 60.408C 46.2002 59.928 45.1682 59.688 44.0162 59.688C 42.8162 59.688 41.7482 59.94 40.8122 60.444C 39.8762 60.924 39.0962 61.572 38.4722 62.388C 37.8482 63.18 37.3682 64.092 37.0322 65.124C 36.7202 66.132 36.5642 67.164 36.5642 68.22ZM 60.2831 81L 60.2831 55.44L 71.5871 55.44C 72.7631 55.44 73.8431 55.692 74.8271 56.196C 75.8351 56.676 76.6991 57.324 77.4191 58.14C 78.1391 58.932 78.7031 59.844 79.1111 60.876C 79.5191 61.884 79.7231 62.904 79.7231 63.936C 79.7231 65.592 79.3031 67.104 78.4631 68.472C 77.6471 69.816 76.5311 70.788 75.1151 71.388L 80.9471 81L 75.3671 81L 70.1471 72.432L 65.2511 72.432L 65.2511 81L 60.2831 81ZM 65.2511 68.076L 71.4791 68.076C 71.9351 68.076 72.3551 67.968 72.7391 67.752C 73.1471 67.536 73.4951 67.248 73.7831 66.888C 74.0711 66.504 74.2991 66.06 74.4671 65.556C 74.6351 65.052 74.7191 64.512 74.7191 63.936C 74.7191 63.336 74.6231 62.784 74.4311 62.28C 74.2391 61.776 73.9751 61.344 73.6391 60.984C 73.3271 60.6 72.9551 60.312 72.5231 60.12C 72.1151 59.904 71.6951 59.796 71.2631 59.796L 65.2511 59.796L 65.2511 68.076ZM 95.1325 81.18C 93.2605 81.18 91.5565 80.82 90.0205 80.1C 88.5085 79.356 87.2005 78.384 86.0965 77.184C 85.0165 75.96 84.1765 74.568 83.5765 73.008C 82.9765 71.448 82.6765 69.852 82.6765 68.22C 82.6765 66.516 82.9885 64.884 83.6125 63.324C 84.2605 61.764 85.1365 60.384 86.2405 59.184C 87.3685 57.984 88.7005 57.036 90.2365 56.34C 91.7725 55.62 93.4405 55.26 95.2405 55.26C 97.0885 55.26 98.7685 55.644 100.281 56.412C 101.817 57.156 103.125 58.14 104.205 59.364C 105.285 60.588 106.125 61.98 106.725 63.54C 107.325 65.1 107.625 66.684 107.625 68.292C 107.625 69.996 107.313 71.628 106.689 73.188C 106.065 74.724 105.201 76.092 104.097 77.292C 102.993 78.468 101.673 79.416 100.137 80.136C 98.6005 80.832 96.9325 81.18 95.1325 81.18ZM 87.7165 68.22C 87.7165 69.324 87.8845 70.392 88.2205 71.424C 88.5565 72.456 89.0365 73.368 89.6605 74.16C 90.3085 74.952 91.0885 75.588 92.0005 76.068C 92.9365 76.548 93.9925 76.788 95.1685 76.788C 96.3685 76.788 97.4245 76.548 98.3365 76.068C 99.2725 75.564 100.053 74.904 100.677 74.088C 101.325 73.272 101.805 72.36 102.117 71.352C 102.453 70.32 102.621 69.276 102.621 68.22C 102.621 67.116 102.441 66.048 102.081 65.016C 101.745 63.984 101.253 63.072 100.605 62.28C 99.9805 61.488 99.2005 60.864 98.2645 60.408C 97.3525 59.928 96.3205 59.688 95.1685 59.688C 93.9685 59.688 92.9005 59.94 91.9645 60.444C 91.0285 60.924 90.2485 61.572 89.6245 62.388C 89.0005 63.18 88.5205 64.092 88.1845 65.124C 87.8725 66.132 87.7165 67.164 87.7165 68.22ZM 109.043 77.256L 123.479 59.796L 109.439 59.796L 109.439 55.44L 129.203 55.44L 129.203 59.184L 115.235 76.644L 129.311 76.644L 129.311 81L 109.043 81L 109.043 77.256ZM 133.197 81L 133.197 55.44L 142.485 55.44C 144.573 55.44 146.397 55.776 147.957 56.448C 149.541 57.12 150.861 58.032 151.917 59.184C 152.973 60.336 153.765 61.692 154.293 63.252C 154.821 64.788 155.085 66.432 155.085 68.184C 155.085 70.128 154.785 71.892 154.185 73.476C 153.609 75.036 152.769 76.38 151.665 77.508C 150.561 78.612 149.229 79.476 147.669 80.1C 146.133 80.7 144.405 81 142.485 81L 133.197 81ZM 150.081 68.184C 150.081 66.96 149.913 65.832 149.577 64.8C 149.241 63.768 148.749 62.88 148.101 62.136C 147.453 61.392 146.649 60.816 145.689 60.408C 144.753 60 143.685 59.796 142.485 59.796L 138.165 59.796L 138.165 76.644L 142.485 76.644C 143.709 76.644 144.789 76.428 145.725 75.996C 146.685 75.564 147.477 74.976 148.101 74.232C 148.749 73.464 149.241 72.564 149.577 71.532C 149.913 70.5 150.081 69.384 150.081 68.184ZM 158.967 81L 158.967 55.44L 163.935 55.44L 163.935 81L 158.967 81ZM 174.236 64.62L 174.236 81L 169.268 81L 169.268 55.44L 173.12 55.44L 186.44 72.216L 186.44 55.476L 191.408 55.476L 191.408 81L 187.376 81L 174.236 64.62Z"/>
</defs>
</svg>
